<svg xmlns="http://www.w3.org/2000/svg" viewBox="0 0 400 200" width="400" height="200">
  <rect width="400" height="200" fill="#0d0d1a"/>
  <!-- edges -->
  <line x1="200" y1="42" x2="120" y2="90" stroke="#2d1a5e" stroke-width="1.5"/>
  <line x1="200" y1="42" x2="280" y2="90" stroke="#2d1a5e" stroke-width="1.5"/>
  <line x1="120" y1="107" x2="75"  y2="150" stroke="#2d1a5e" stroke-width="1.5"/>
  <line x1="120" y1="107" x2="165" y2="150" stroke="#2d1a5e" stroke-width="1.5"/>
  <line x1="280" y1="107" x2="235" y2="150" stroke="#2d1a5e" stroke-width="1.5"/>
  <line x1="280" y1="107" x2="325" y2="150" stroke="#2d1a5e" stroke-width="1.5"/>
  <!-- edge labels -->
  <text x="148" y="70" fill="#a78bfa" font-size="8" text-anchor="middle" font-family="monospace">&#x2264; 2.5</text>
  <text x="255" y="70" fill="#a78bfa" font-size="8" text-anchor="middle" font-family="monospace">&gt; 2.5</text>
  <!-- root node -->
  <rect x="158" y="20" width="84" height="24" rx="4" fill="#1a1033" stroke="#7c3aed" stroke-width="1.5"/>
  <text x="200" y="36" fill="#c4b5fd" font-size="9" text-anchor="middle" font-family="monospace">feature_0</text>
  <!-- internal nodes -->
  <rect x="86" y="88" width="68" height="22" rx="4" fill="#1a1033" stroke="#7c3aed" stroke-width="1.5"/>
  <text x="120" y="103" fill="#c4b5fd" font-size="9" text-anchor="middle" font-family="monospace">feature_1</text>
  <rect x="246" y="88" width="68" height="22" rx="4" fill="#1a1033" stroke="#7c3aed" stroke-width="1.5"/>
  <text x="280" y="103" fill="#c4b5fd" font-size="9" text-anchor="middle" font-family="monospace">feature_2</text>
  <!-- leaf nodes -->
  <rect x="50"  y="148" width="50" height="22" rx="4" fill="#7c3aed" opacity="0.8"/>
  <text x="75"  y="163" fill="#fff" font-size="9" text-anchor="middle" font-family="monospace">class 0</text>
  <rect x="140" y="148" width="50" height="22" rx="4" fill="#e879f9" opacity="0.8"/>
  <text x="165" y="163" fill="#fff" font-size="9" text-anchor="middle" font-family="monospace">class 1</text>
  <rect x="210" y="148" width="50" height="22" rx="4" fill="#e879f9" opacity="0.8"/>
  <text x="235" y="163" fill="#fff" font-size="9" text-anchor="middle" font-family="monospace">class 1</text>
  <rect x="300" y="148" width="50" height="22" rx="4" fill="#7c3aed" opacity="0.8"/>
  <text x="325" y="163" fill="#fff" font-size="9" text-anchor="middle" font-family="monospace">class 0</text>
  <!-- depth labels -->
  <text x="14" y="36"  fill="#2d1a5e" font-size="8" font-family="monospace">depth 0</text>
  <text x="14" y="102" fill="#2d1a5e" font-size="8" font-family="monospace">depth 1</text>
  <text x="14" y="163" fill="#2d1a5e" font-size="8" font-family="monospace">depth 2</text>
  <!-- title -->
  <text x="210" y="192" fill="#a78bfa" font-size="9" text-anchor="middle" font-family="monospace" opacity="0.7">decision_trees.py</text>
</svg>
