<svg xmlns="http://www.w3.org/2000/svg" viewBox="0 0 400 200" width="400" height="200">
  <rect width="400" height="200" fill="#0d0d1a"/>
  <!-- grid -->
  <line x1="50" y1="175" x2="375" y2="175" stroke="#a78bfa" stroke-width="1.5"/>
  <line x1="50" y1="15"  x2="50"  y2="175" stroke="#a78bfa" stroke-width="1.5"/>
  <line x1="110" y1="15" x2="110" y2="175" stroke="#2d1a5e" stroke-width="0.5"/>
  <line x1="170" y1="15" x2="170" y2="175" stroke="#2d1a5e" stroke-width="0.5"/>
  <line x1="230" y1="15" x2="230" y2="175" stroke="#2d1a5e" stroke-width="0.5"/>
  <line x1="290" y1="15" x2="290" y2="175" stroke="#2d1a5e" stroke-width="0.5"/>
  <line x1="350" y1="15" x2="350" y2="175" stroke="#2d1a5e" stroke-width="0.5"/>
  <line x1="50" y1="55"  x2="375" y2="55"  stroke="#2d1a5e" stroke-width="0.5"/>
  <line x1="50" y1="95"  x2="375" y2="95"  stroke="#2d1a5e" stroke-width="0.5"/>
  <line x1="50" y1="135" x2="375" y2="135" stroke="#2d1a5e" stroke-width="0.5"/>
  <!-- class A cluster (violet, bottom-left) -->
  <circle cx="85"  cy="145" r="5" fill="#7c3aed" opacity="0.9"/>
  <circle cx="100" cy="160" r="5" fill="#7c3aed" opacity="0.9"/>
  <circle cx="120" cy="148" r="5" fill="#7c3aed" opacity="0.9"/>
  <circle cx="80"  cy="130" r="5" fill="#7c3aed" opacity="0.9"/>
  <circle cx="108" cy="135" r="5" fill="#7c3aed" opacity="0.9"/>
  <circle cx="135" cy="160" r="5" fill="#7c3aed" opacity="0.9"/>
  <!-- class B cluster (magenta, top-right) -->
  <circle cx="280" cy="45"  r="5" fill="#e879f9" opacity="0.9"/>
  <circle cx="305" cy="60"  r="5" fill="#e879f9" opacity="0.9"/>
  <circle cx="320" cy="40"  r="5" fill="#e879f9" opacity="0.9"/>
  <circle cx="295" cy="75"  r="5" fill="#e879f9" opacity="0.9"/>
  <circle cx="340" cy="55"  r="5" fill="#e879f9" opacity="0.9"/>
  <circle cx="310" cy="82"  r="5" fill="#e879f9" opacity="0.9"/>
  <!-- mixed middle -->
  <circle cx="175" cy="110" r="5" fill="#7c3aed" opacity="0.7"/>
  <circle cx="210" cy="98"  r="5" fill="#e879f9" opacity="0.7"/>
  <circle cx="195" cy="130" r="5" fill="#7c3aed" opacity="0.7"/>
  <circle cx="225" cy="118" r="5" fill="#e879f9" opacity="0.7"/>
  <!-- query point (star) -->
  <polygon points="200,78 203,87 213,87 205,93 208,102 200,96 192,102 195,93 187,87 197,87"
           fill="#f0abfc" stroke="#fff" stroke-width="0.5"/>
  <!-- k=3 radius circle (dashed) -->
  <circle cx="200" cy="90" r="32" fill="none" stroke="#f0abfc" stroke-width="1.2" stroke-dasharray="5,4" opacity="0.6"/>
  <!-- k=3 nearest neighbors lines -->
  <line x1="200" y1="90" x2="175" y2="110" stroke="#f0abfc" stroke-width="1" opacity="0.4"/>
  <line x1="200" y1="90" x2="195" y2="130" stroke="#f0abfc" stroke-width="1" opacity="0.4"/>
  <line x1="200" y1="90" x2="210" y2="98"  stroke="#f0abfc" stroke-width="1" opacity="0.4"/>
  <!-- legend -->
  <circle cx="62" cy="25" r="4" fill="#7c3aed"/>
  <text x="70" y="29" fill="#a78bfa" font-size="8" font-family="monospace">class A</text>
  <circle cx="105" cy="25" r="4" fill="#e879f9"/>
  <text x="113" y="29" fill="#a78bfa" font-size="8" font-family="monospace">class B</text>
  <polygon points="155,25 157,31 163,31 158,35 160,41 155,37 150,41 152,35 147,31 153,31" fill="#f0abfc" transform="scale(0.6) translate(103,15)"/>
  <text x="168" y="29" fill="#a78bfa" font-size="8" font-family="monospace">query (k=3)</text>
  <!-- axis labels -->
  <text x="213" y="192" fill="#a78bfa" font-size="10" text-anchor="middle" font-family="monospace">x&#x2081;</text>
  <text x="24"  y="97"  fill="#a78bfa" font-size="10" text-anchor="middle" font-family="monospace" transform="rotate(-90,24,97)">x&#x2082;</text>
  <text x="213" y="13"  fill="#a78bfa" font-size="9"  text-anchor="middle" font-family="monospace" opacity="0.7">k_nearest_neighbors.py</text>
</svg>
