<svg xmlns="http://www.w3.org/2000/svg" viewBox="0 0 400 200" width="400" height="200">
  <rect width="400" height="200" fill="#0d0d1a"/>
  <!-- grid -->
  <line x1="70" y1="20" x2="70" y2="165" stroke="#2d1a5e" stroke-width="0.5"/>
  <line x1="130" y1="20" x2="130" y2="165" stroke="#2d1a5e" stroke-width="0.5"/>
  <line x1="190" y1="20" x2="190" y2="165" stroke="#2d1a5e" stroke-width="0.5"/>
  <line x1="250" y1="20" x2="250" y2="165" stroke="#2d1a5e" stroke-width="0.5"/>
  <line x1="310" y1="20" x2="310" y2="165" stroke="#2d1a5e" stroke-width="0.5"/>
  <line x1="50" y1="40" x2="370" y2="40" stroke="#2d1a5e" stroke-width="0.5"/>
  <line x1="50" y1="80" x2="370" y2="80" stroke="#2d1a5e" stroke-width="0.5"/>
  <line x1="50" y1="120" x2="370" y2="120" stroke="#2d1a5e" stroke-width="0.5"/>
  <!-- axes -->
  <line x1="50" y1="165" x2="370" y2="165" stroke="#a78bfa" stroke-width="1.5"/>
  <line x1="50" y1="20" x2="50" y2="165" stroke="#a78bfa" stroke-width="1.5"/>
  <!-- axis labels -->
  <text x="210" y="185" fill="#a78bfa" font-size="10" text-anchor="middle" font-family="monospace">x</text>
  <text x="22" y="97" fill="#a78bfa" font-size="10" text-anchor="middle" font-family="monospace" transform="rotate(-90,22,97)">y</text>
  <!-- regression line -->
  <line x1="55" y1="158" x2="365" y2="32" stroke="#e879f9" stroke-width="2" opacity="0.9"/>
  <!-- scatter points -->
  <circle cx="75"  cy="152" r="4" fill="#7c3aed" opacity="0.9"/>
  <circle cx="90"  cy="160" r="4" fill="#7c3aed" opacity="0.9"/>
  <circle cx="110" cy="140" r="4" fill="#c4b5fd" opacity="0.9"/>
  <circle cx="135" cy="133" r="4" fill="#7c3aed" opacity="0.9"/>
  <circle cx="150" cy="125" r="4" fill="#c4b5fd" opacity="0.9"/>
  <circle cx="170" cy="118" r="4" fill="#7c3aed" opacity="0.9"/>
  <circle cx="190" cy="108" r="4" fill="#c4b5fd" opacity="0.9"/>
  <circle cx="210" cy="100" r="4" fill="#7c3aed" opacity="0.9"/>
  <circle cx="225" cy="92"  r="4" fill="#c4b5fd" opacity="0.9"/>
  <circle cx="250" cy="80"  r="4" fill="#7c3aed" opacity="0.9"/>
  <circle cx="270" cy="75"  r="4" fill="#c4b5fd" opacity="0.9"/>
  <circle cx="295" cy="65"  r="4" fill="#7c3aed" opacity="0.9"/>
  <circle cx="320" cy="55"  r="4" fill="#c4b5fd" opacity="0.9"/>
  <circle cx="345" cy="42"  r="4" fill="#7c3aed" opacity="0.9"/>
  <!-- title -->
  <text x="210" y="13" fill="#a78bfa" font-size="9" text-anchor="middle" font-family="monospace" opacity="0.7">linear_regression.py</text>
</svg>
