<svg xmlns="http://www.w3.org/2000/svg" viewBox="0 0 400 200" width="400" height="200">
  <rect width="400" height="200" fill="#0d0d1a"/>
  <!-- grid -->
  <line x1="80" y1="20" x2="80" y2="170" stroke="#2d1a5e" stroke-width="0.5"/>
  <line x1="150" y1="20" x2="150" y2="170" stroke="#2d1a5e" stroke-width="0.5"/>
  <line x1="220" y1="20" x2="220" y2="170" stroke="#2d1a5e" stroke-width="0.5"/>
  <line x1="290" y1="20" x2="290" y2="170" stroke="#2d1a5e" stroke-width="0.5"/>
  <line x1="50" y1="50" x2="370" y2="50" stroke="#2d1a5e" stroke-width="0.5"/>
  <line x1="50" y1="95" x2="370" y2="95" stroke="#2d1a5e" stroke-width="0.5"/>
  <line x1="50" y1="140" x2="370" y2="140" stroke="#2d1a5e" stroke-width="0.5"/>
  <!-- axes -->
  <line x1="50" y1="170" x2="370" y2="170" stroke="#a78bfa" stroke-width="1.5"/>
  <line x1="50" y1="20" x2="50" y2="170" stroke="#a78bfa" stroke-width="1.5"/>
  <!-- y-axis labels -->
  <text x="42" y="54"  fill="#a78bfa" font-size="8" text-anchor="end" font-family="monospace">1.0</text>
  <text x="42" y="99"  fill="#a78bfa" font-size="8" text-anchor="end" font-family="monospace">0.5</text>
  <text x="42" y="144" fill="#a78bfa" font-size="8" text-anchor="end" font-family="monospace">0.0</text>
  <!-- threshold dashed line -->
  <line x1="50" y1="95" x2="370" y2="95" stroke="#7c3aed" stroke-width="1" stroke-dasharray="5,4" opacity="0.7"/>
  <!-- sigmoid S-curve path -->
  <path d="M 55 145
           C 80 145, 100 143, 120 138
           C 140 133, 155 125, 175 115
           C 190 107, 205 95, 210 95
           C 215 95, 225 83, 240 75
           C 260 65, 275 57, 295 53
           C 315 50, 340 49, 365 49"
        fill="none" stroke="#e879f9" stroke-width="2.5"/>
  <!-- axis label -->
  <text x="210" y="188" fill="#a78bfa" font-size="10" text-anchor="middle" font-family="monospace">z</text>
  <text x="22" y="97" fill="#a78bfa" font-size="10" text-anchor="middle" font-family="monospace" transform="rotate(-90,22,97)">P(y=1)</text>
  <!-- title -->
  <text x="210" y="13" fill="#a78bfa" font-size="9" text-anchor="middle" font-family="monospace" opacity="0.7">logistic_regression.py</text>
</svg>
