<svg xmlns="http://www.w3.org/2000/svg" viewBox="0 0 400 200" width="400" height="200">
  <rect width="400" height="200" fill="#0d0d1a"/>
  <!-- Tree 1 -->
  <line x1="65" y1="52" x2="45" y2="80" stroke="#2d1a5e" stroke-width="1"/>
  <line x1="65" y1="52" x2="85" y2="80" stroke="#2d1a5e" stroke-width="1"/>
  <rect x="50" y="42" width="30" height="16" rx="3" fill="#1a1033" stroke="#7c3aed" stroke-width="1.2"/>
  <text x="65" y="54" fill="#c4b5fd" font-size="7" text-anchor="middle" font-family="monospace">f&#x2264;1.2</text>
  <rect x="32" y="78" width="26" height="16" rx="3" fill="#7c3aed" opacity="0.8"/>
  <text x="45" y="90" fill="#fff" font-size="7" text-anchor="middle" font-family="monospace">cls 0</text>
  <rect x="72" y="78" width="26" height="16" rx="3" fill="#e879f9" opacity="0.8"/>
  <text x="85" y="90" fill="#fff" font-size="7" text-anchor="middle" font-family="monospace">cls 1</text>
  <text x="65" y="120" fill="#a78bfa" font-size="8" text-anchor="middle" font-family="monospace">tree_1</text>
  <!-- Tree 2 -->
  <line x1="200" y1="52" x2="180" y2="80" stroke="#2d1a5e" stroke-width="1"/>
  <line x1="200" y1="52" x2="220" y2="80" stroke="#2d1a5e" stroke-width="1"/>
  <rect x="185" y="42" width="30" height="16" rx="3" fill="#1a1033" stroke="#7c3aed" stroke-width="1.2"/>
  <text x="200" y="54" fill="#c4b5fd" font-size="7" text-anchor="middle" font-family="monospace">f&#x2264;2.5</text>
  <rect x="167" y="78" width="26" height="16" rx="3" fill="#e879f9" opacity="0.8"/>
  <text x="180" y="90" fill="#fff" font-size="7" text-anchor="middle" font-family="monospace">cls 1</text>
  <rect x="207" y="78" width="26" height="16" rx="3" fill="#7c3aed" opacity="0.8"/>
  <text x="220" y="90" fill="#fff" font-size="7" text-anchor="middle" font-family="monospace">cls 0</text>
  <text x="200" y="120" fill="#a78bfa" font-size="8" text-anchor="middle" font-family="monospace">tree_2</text>
  <!-- Tree 3 -->
  <line x1="335" y1="52" x2="315" y2="80" stroke="#2d1a5e" stroke-width="1"/>
  <line x1="335" y1="52" x2="355" y2="80" stroke="#2d1a5e" stroke-width="1"/>
  <rect x="320" y="42" width="30" height="16" rx="3" fill="#1a1033" stroke="#7c3aed" stroke-width="1.2"/>
  <text x="335" y="54" fill="#c4b5fd" font-size="7" text-anchor="middle" font-family="monospace">f&#x2264;0.8</text>
  <rect x="302" y="78" width="26" height="16" rx="3" fill="#7c3aed" opacity="0.8"/>
  <text x="315" y="90" fill="#fff" font-size="7" text-anchor="middle" font-family="monospace">cls 0</text>
  <rect x="342" y="78" width="26" height="16" rx="3" fill="#e879f9" opacity="0.8"/>
  <text x="355" y="90" fill="#fff" font-size="7" text-anchor="middle" font-family="monospace">cls 1</text>
  <text x="335" y="120" fill="#a78bfa" font-size="8" text-anchor="middle" font-family="monospace">tree_3</text>
  <!-- Aggregation arrows -->
  <line x1="65" y1="128" x2="190" y2="158" stroke="#7c3aed" stroke-width="1" stroke-dasharray="3,3"/>
  <line x1="200" y1="128" x2="200" y2="158" stroke="#7c3aed" stroke-width="1" stroke-dasharray="3,3"/>
  <line x1="335" y1="128" x2="210" y2="158" stroke="#7c3aed" stroke-width="1" stroke-dasharray="3,3"/>
  <!-- Output box -->
  <rect x="150" y="158" width="100" height="24" rx="4" fill="#1a1033" stroke="#e879f9" stroke-width="1.5"/>
  <text x="200" y="174" fill="#e879f9" font-size="9" text-anchor="middle" font-family="monospace">majority vote</text>
  <!-- label -->
  <text x="200" y="196" fill="#a78bfa" font-size="9" text-anchor="middle" font-family="monospace" opacity="0.7">random_forest.py</text>
</svg>
