<svg xmlns="http://www.w3.org/2000/svg" viewBox="0 0 400 200" width="400" height="200">
  <rect width="400" height="200" fill="#0d0d1a"/>
  <!-- grid -->
  <line x1="50" y1="175" x2="375" y2="175" stroke="#a78bfa" stroke-width="1.5"/>
  <line x1="50" y1="15"  x2="50"  y2="175" stroke="#a78bfa" stroke-width="1.5"/>
  <line x1="80"  y1="15" x2="80"  y2="175" stroke="#2d1a5e" stroke-width="0.5"/>
  <line x1="140" y1="15" x2="140" y2="175" stroke="#2d1a5e" stroke-width="0.5"/>
  <line x1="200" y1="15" x2="200" y2="175" stroke="#2d1a5e" stroke-width="0.5"/>
  <line x1="260" y1="15" x2="260" y2="175" stroke="#2d1a5e" stroke-width="0.5"/>
  <line x1="320" y1="15" x2="320" y2="175" stroke="#2d1a5e" stroke-width="0.5"/>
  <line x1="50" y1="45"  x2="375" y2="45"  stroke="#2d1a5e" stroke-width="0.5"/>
  <line x1="50" y1="85"  x2="375" y2="85"  stroke="#2d1a5e" stroke-width="0.5"/>
  <line x1="50" y1="125" x2="375" y2="125" stroke="#2d1a5e" stroke-width="0.5"/>
  <!-- class 0 points (violet, top-right) -->
  <circle cx="230" cy="55"  r="5" fill="none" stroke="#7c3aed" stroke-width="2"/>
  <circle cx="265" cy="40"  r="5" fill="none" stroke="#7c3aed" stroke-width="2"/>
  <circle cx="290" cy="70"  r="5" fill="none" stroke="#7c3aed" stroke-width="2"/>
  <circle cx="310" cy="50"  r="5" fill="none" stroke="#7c3aed" stroke-width="2"/>
  <circle cx="340" cy="80"  r="5" fill="none" stroke="#7c3aed" stroke-width="2"/>
  <circle cx="255" cy="90"  r="5" fill="none" stroke="#7c3aed" stroke-width="2"/>
  <circle cx="320" cy="35"  r="5" fill="none" stroke="#7c3aed" stroke-width="2"/>
  <!-- class 1 points (magenta, bottom-left) -->
  <circle cx="80"  cy="140" r="5" fill="#e879f9" opacity="0.7"/>
  <circle cx="110" cy="125" r="5" fill="#e879f9" opacity="0.7"/>
  <circle cx="90"  cy="160" r="5" fill="#e879f9" opacity="0.7"/>
  <circle cx="130" cy="150" r="5" fill="#e879f9" opacity="0.7"/>
  <circle cx="155" cy="135" r="5" fill="#e879f9" opacity="0.7"/>
  <circle cx="115" cy="108" r="5" fill="#e879f9" opacity="0.7"/>
  <circle cx="165" cy="155" r="5" fill="#e879f9" opacity="0.7"/>
  <!-- support vectors (circled) -->
  <circle cx="155" cy="135" r="9" fill="none" stroke="#e879f9" stroke-width="1" stroke-dasharray="2,2"/>
  <circle cx="230" cy="55"  r="9" fill="none" stroke="#7c3aed" stroke-width="1" stroke-dasharray="2,2"/>
  <!-- decision boundary (solid) -->
  <line x1="55" y1="170" x2="375" y2="25" stroke="#f0abfc" stroke-width="2" opacity="0.9"/>
  <!-- margin lines (dashed) -->
  <line x1="55" y1="185" x2="355" y2="40" stroke="#7c3aed" stroke-width="1" stroke-dasharray="6,4" opacity="0.6"/>
  <line x1="75" y1="155" x2="385" y2="10" stroke="#e879f9" stroke-width="1" stroke-dasharray="6,4" opacity="0.6"/>
  <!-- labels -->
  <text x="356" y="22"  fill="#f0abfc" font-size="8" font-family="monospace">hyperplane</text>
  <text x="210" y="192" fill="#a78bfa" font-size="10" text-anchor="middle" font-family="monospace">x&#x2081;</text>
  <text x="24"  y="97"  fill="#a78bfa" font-size="10" text-anchor="middle" font-family="monospace" transform="rotate(-90,24,97)">x&#x2082;</text>
  <text x="210" y="13"  fill="#a78bfa" font-size="9"  text-anchor="middle" font-family="monospace" opacity="0.7">support_vector_machines.py</text>
</svg>
