<svg width="160" height="160" viewBox="0 0 160 160" xmlns="http://www.w3.org/2000/svg">
  <defs>
    <style>
      .pixel { shape-rendering: crispEdges; }
      .hair { fill: #2a1810; }
      .skin { fill: #d4a574; }
      .shirt { fill: #8b1538; }
      .collar { fill: #ffffff; }
      .guitar-body { fill: #4c1d95; }
      .guitar-neck { fill: #1f2937; }
      .guitar-strings { fill: #e5e7eb; }
      .sunglasses-frame { fill: #d4af37; }
      .sunglasses-lens { fill: #1f2937; }
      .mouth { fill: #8b4513; }
      
      .blink {
        animation: blink 4s infinite;
      }
      
      .guitar-strum {
        animation: strum 2.5s ease-in-out infinite;
        transform-origin: 120px 85px;
      }
      
      .bob {
        animation: bob 3s ease-in-out infinite;
      }
      
      .hair-sway {
        animation: hair-move 3.5s ease-in-out infinite;
      }
      
      @keyframes blink {
        0%, 92%, 100% { opacity: 1; }
        96% { opacity: 0; }
      }
      
      @keyframes strum {
        0%, 100% { transform: rotate(-1deg); }
        50% { transform: rotate(1deg); }
      }
      
      @keyframes bob {
        0%, 100% { transform: translateY(0px); }
        50% { transform: translateY(-1px); }
      }
      
      @keyframes hair-move {
        0%, 100% { transform: translateX(0px); }
        50% { transform: translateX(1px); }
      }
    </style>
  </defs>
  
  <!-- Background -->
  <rect width="160" height="160" fill="transparent"/>
  
  <!-- Character container with bob animation -->
  <g class="bob">
    
    <!-- Hair (messy dark hair like in photo) -->
    <g class="hair pixel hair-sway">
      <!-- Hair back layer -->
      <rect x="45" y="20" width="70" height="4"/>
      <rect x="40" y="24" width="80" height="4"/>
      <rect x="38" y="28" width="84" height="4"/>
      <rect x="36" y="32" width="88" height="4"/>
      
      <!-- Messy front pieces -->
      <rect x="42" y="36" width="12" height="4"/>
      <rect x="48" y="40" width="8" height="4"/>
      <rect x="52" y="44" width="6" height="4"/>
      
      <!-- Right side messy pieces -->
      <rect x="102" y="36" width="14" height="4"/>
      <rect x="108" y="40" width="10" height="4"/>
      <rect x="112" y="44" width="8" height="4"/>
      
      <!-- Main hair mass -->
      <rect x="40" y="36" width="80" height="4"/>
      <rect x="42" y="40" width="76" height="4"/>
      <rect x="44" y="44" width="72" height="4"/>
    </g>
    
    <!-- Head -->
    <g class="skin pixel">
      <rect x="52" y="48" width="56" height="4"/>
      <rect x="48" y="52" width="64" height="4"/>
      <rect x="48" y="56" width="64" height="4"/>
      <rect x="48" y="60" width="64" height="4"/>
      <rect x="48" y="64" width="64" height="4"/>
      <rect x="52" y="68" width="56" height="4"/>
    </g>
    
    <!-- Aviator Sunglasses -->
    <g>
      <!-- Sunglasses frame (golden) -->
      <g class="sunglasses-frame pixel">
        <!-- Left lens frame -->
        <rect x="52" y="56" width="20" height="12"/>
        <rect x="50" y="58" width="24" height="8"/>
        <!-- Right lens frame -->
        <rect x="88" y="56" width="20" height="12"/>
        <rect x="86" y="58" width="24" height="8"/>
        <!-- Bridge -->
        <rect x="72" y="60" width="16" height="4"/>
        <!-- Nose pieces -->
        <rect x="74" y="64" width="4" height="4"/>
        <rect x="82" y="64" width="4" height="4"/>
      </g>
      
      <!-- Sunglasses lenses (dark) -->
      <g class="sunglasses-lens pixel">
        <!-- Left lens -->
        <rect x="54" y="58" width="16" height="8"/>
        <!-- Right lens -->
        <rect x="90" y="58" width="16" height="8"/>
      </g>
    </g>
    
    <!-- Mouth -->
    <rect class="mouth pixel" x="74" y="66" width="12" height="4"/>
    
    <!-- White Collar -->
    <g class="collar pixel">
      <rect x="56" y="76" width="48" height="4"/>
      <rect x="60" y="80" width="40" height="4"/>
      <!-- Collar points -->
      <rect x="64" y="72" width="8" height="4"/>
      <rect x="88" y="72" width="8" height="4"/>
    </g>
    
    <!-- Red Sweater/Cardigan -->
    <g class="shirt pixel">
      <rect x="52" y="80" width="56" height="4"/>
      <rect x="48" y="84" width="64" height="4"/>
      <rect x="44" y="88" width="72" height="4"/>
      <rect x="44" y="92" width="72" height="4"/>
      <rect x="44" y="96" width="72" height="4"/>
      <rect x="48" y="100" width="64" height="4"/>
      <rect x="52" y="104" width="56" height="4"/>
    </g>
    
    <!-- Arms -->
    <g class="skin pixel">
      <!-- Left arm -->
      <rect x="32" y="88" width="16" height="4"/>
      <rect x="28" y="92" width="20" height="4"/>
      <rect x="24" y="96" width="24" height="4"/>
      
      <!-- Right arm (holding guitar) -->
      <rect x="112" y="88" width="16" height="4"/>
      <rect x="116" y="92" width="20" height="4"/>
      <rect x="120" y="96" width="24" height="4"/>
    </g>
  </g>
  
  <!-- Electric Guitar with strum animation -->
  <g class="guitar-strum">
    <!-- Guitar body (purple/dark) -->
    <g class="guitar-body pixel">
      <rect x="120" y="85" width="24" height="32"/>
      <rect x="118" y="89" width="28" height="24"/>
      <rect x="116" y="93" width="32" height="16"/>
    </g>
    
    <!-- Guitar neck -->
    <g class="guitar-neck pixel">
      <rect x="144" y="95" width="8" height="8"/>
      <rect x="152" y="97" width="6" height="4"/>
    </g>
    
    <!-- Guitar strings -->
    <g class="guitar-strings pixel">
      <rect x="124" y="96" width="28" height="1"/>
      <rect x="124" y="98" width="28" height="1"/>
      <rect x="124" y="100" width="28" height="1"/>
      <rect x="124" y="102" width="28" height="1"/>
    </g>
    
    <!-- Guitar details -->
    <g class="guitar-neck pixel">
      <!-- Pickup -->
      <rect x="126" y="94" width="8" height="4"/>
      <rect x="126" y="102" width="8" height="4"/>
      <!-- Bridge -->
      <rect x="138" y="96" width="4" height="6"/>
    </g>
  </g>
</svg>
